<?xml version="1.0" encoding="UTF-8"?>
<svg xmlns="http://www.w3.org/2000/svg" xmlns:xlink="http://www.w3.org/1999/xlink" viewBox="0 0 476.25 354.61" version="1.1">
<defs>
<clipPath id="clip1">
  <path d="M 0 0 L 476.25 0 L 476.25 354.609375 L 0 354.609375 Z M 0 0 "/>
</clipPath>
<clipPath id="clip2">
  <path d="M 243.699219 0.0117188 L 476.25 0.0117188 L 476.25 326.511719 L 243.699219 326.511719 Z M 243.699219 0.0117188 "/>
</clipPath>
<filter id="alpha" filterUnits="objectBoundingBox" x="0%" y="0%" width="100%" height="100%">
  <feColorMatrix type="matrix" in="SourceGraphic" values="0 0 0 0 1 0 0 0 0 1 0 0 0 0 1 0 0 0 1 0"/>
</filter>
<mask id="mask0">
  <g filter="url(#alpha)">
<rect x="0" y="0" width="476.25" height="354.61" style="fill:rgb(0%,0%,0%);fill-opacity:0.25;stroke:none;"/>
  </g>
</mask>
<clipPath id="clip4">
  <path d="M 0.78125 0.0117188 L 233.25 0.0117188 L 233.25 326.472656 L 0.78125 326.472656 Z M 0.78125 0.0117188 "/>
</clipPath>
<clipPath id="clip3">
  <rect width="234" height="327"/>
</clipPath>
<g id="surface4" clip-path="url(#clip3)">
<g clip-path="url(#clip4)" clip-rule="nonzero">
<path style=" stroke:none;fill-rule:evenodd;fill:rgb(100%,100%,100%);fill-opacity:1;" d="M 195.75 -0.00390625 C 216.460938 -0.00390625 233.25 16.800781 233.25 37.523438 L 233.25 317.085938 C 233.25 320.328125 232.839844 323.472656 232.066406 326.472656 L 0.78125 -0.00390625 "/>
</g>
</g>
</defs>
<g id="surface1">
<path style=" stroke:none;fill-rule:evenodd;fill:rgb(100%,100%,100%);fill-opacity:1;" d="M 40.539063 2.683594 L 435.710938 2.683594 C 456.109375 2.683594 472.644531 19.230469 472.644531 39.640625 L 472.644531 314.96875 C 472.644531 335.378906 456.109375 351.925781 435.710938 351.925781 L 40.539063 351.925781 C 20.140625 351.925781 3.605469 335.378906 3.605469 314.96875 L 3.605469 39.640625 C 3.605469 19.230469 20.140625 2.683594 40.539063 2.683594 "/>
<g clip-path="url(#clip1)" clip-rule="nonzero">
<path style=" stroke:none;fill-rule:evenodd;fill:rgb(13.299561%,11.799622%,12.199402%);fill-opacity:1;" d="M 308.90625 113.492188 C 320.378906 113.492188 326.636719 122.21875 326.636719 133.132813 C 326.636719 142.699219 319.632813 151.09375 309.054688 151.09375 C 299.070313 151.09375 292.660156 143.035156 292.660156 132.964844 C 292.660156 122.21875 299.367188 113.492188 308.90625 113.492188 M 400.242188 84.785156 L 400.539063 84.785156 L 400.539063 122.554688 L 374.015625 122.554688 Z M 404.539063 207.335938 C 413.980469 207.335938 424.085938 217.035156 424.390625 234.054688 L 413.066406 234.054688 C 412.394531 226.929688 409.109375 223.171875 404.296875 223.171875 C 396.992188 223.171875 394.191406 233.5625 394.191406 244.152344 C 394.191406 254.742188 396.992188 265.128906 404.296875 265.128906 C 409.65625 265.128906 412.640625 260.28125 413.066406 252.066406 L 424.390625 252.066406 C 423.71875 270.375 415.5625 280.964844 404.539063 280.964844 C 391.328125 280.964844 382.863281 264.636719 382.863281 244.152344 C 382.863281 223.664063 391.328125 207.335938 404.539063 207.335938 M 354.433594 208.820313 L 362.957031 261.371094 L 363.078125 261.371094 L 371.605469 208.820313 L 383.417969 208.820313 L 369.351563 279.480469 L 356.320313 279.480469 L 342.621094 208.820313 Z M 332.214844 253.15625 L 327.402344 228.414063 L 327.28125 228.414063 L 322.347656 253.15625 Z M 333.125 208.820313 L 349.382813 279.480469 L 337.570313 279.480469 L 334.890625 266.8125 L 319.730469 266.8125 L 316.988281 279.480469 L 305.359375 279.480469 L 321.617188 208.820313 Z M 308.894531 207.335938 L 292.515625 280.964844 L 283.015625 280.964844 L 299.394531 207.335938 Z M 268.40625 227.621094 L 268.285156 227.621094 L 257.570313 249.890625 L 268.40625 249.890625 Z M 278.453125 210.503906 L 278.453125 249.890625 L 283.996094 249.890625 L 283.996094 264.140625 L 278.453125 264.140625 L 278.453125 279.480469 L 268.101563 279.480469 L 268.101563 264.140625 L 249.53125 264.140625 L 249.53125 248.40625 L 268.527344 210.503906 Z M 247.160156 259.6875 L 228.222656 259.6875 L 228.222656 245.4375 L 247.160156 245.4375 Z M 204.300781 207.335938 C 213.308594 207.335938 222.992188 215.054688 223.964844 232.867188 L 212.640625 232.867188 C 212.214844 226.832031 208.683594 223.171875 204.054688 223.171875 C 196.746094 223.171875 193.945313 233.5625 193.945313 244.152344 C 193.945313 254.742188 196.746094 265.128906 204.054688 265.128906 C 209.65625 265.128906 213.371094 260.875 214.039063 254.441406 L 206.125 254.441406 L 206.125 240.785156 L 224.390625 240.785156 L 224.390625 279.480469 L 217.085938 279.480469 L 216.414063 271.761719 C 213.492188 278.589844 208.195313 280.964844 204.300781 280.964844 C 191.085938 280.964844 182.621094 264.636719 182.621094 244.152344 C 182.621094 223.664063 191.085938 207.335938 204.300781 207.335938 M 179.640625 223.566406 L 156.320313 223.566406 L 156.320313 235.9375 L 177.632813 235.9375 L 177.632813 250.1875 L 156.320313 250.1875 L 156.320313 263.644531 L 180.25 263.644531 L 180.25 279.480469 L 144.996094 279.480469 L 144.996094 208.820313 L 179.640625 208.820313 Z M 117.054688 223.566406 L 117.054688 241.675781 L 124.664063 241.675781 C 128.257813 241.675781 130.753906 239.300781 130.753906 232.867188 C 130.753906 226.140625 128.132813 223.566406 124.664063 223.566406 Z M 142.078125 231.582031 C 142.078125 249.097656 135.929688 255.925781 126.367188 255.925781 L 117.054688 255.925781 L 117.054688 279.480469 L 105.726563 279.480469 L 105.726563 208.820313 L 126.367188 208.820313 C 134.46875 208.820313 142.078125 214.859375 142.078125 231.582031 M 76.019531 255.925781 L 76.140625 255.925781 L 83.628906 208.820313 L 100.3125 208.820313 L 100.3125 279.480469 L 89.65625 279.480469 L 89.65625 225.84375 L 89.535156 225.84375 L 80.402344 279.480469 L 71.757813 279.480469 L 62.625 225.84375 L 62.503906 225.84375 L 62.503906 279.480469 L 51.847656 279.480469 L 51.847656 208.820313 L 68.53125 208.820313 Z M 440.625 197.003906 L 40.625 197.003906 L 40.625 294.570313 L 440.625 294.570313 Z M 438.6875 122.554688 L 425.128906 122.554688 L 425.128906 55.742188 L 400.839844 55.742188 L 354.34375 120.039063 L 354.34375 146.730469 L 399.796875 146.730469 L 399.796875 172.75 L 425.128906 172.75 L 425.128906 146.730469 L 438.6875 146.730469 Z M 312.777344 75.214844 C 315.015625 75.214844 317.695313 75.550781 320.082031 77.0625 C 322.464844 78.910156 324.253906 81.425781 325.296875 86.128906 L 348.988281 86.128906 C 345.859375 64.808594 331.257813 54.230469 312.777344 54.230469 C 281.335938 54.230469 267.328125 82.097656 267.328125 115.003906 C 267.328125 145.050781 278.207031 174.261719 308.757813 174.261719 C 331.40625 174.261719 350.332031 158.816406 350.332031 131.117188 C 350.332031 109.796875 335.726563 92.507813 316.652344 92.507813 C 306.671875 92.507813 297.578125 95.359375 292.363281 104.929688 L 292.066406 104.929688 C 292.511719 91.667969 298.324219 75.214844 312.777344 75.214844 M 261.972656 148.578125 L 212.648438 148.578125 C 219.503906 141.191406 223.378906 138.167969 231.425781 132.796875 C 246.625 122.054688 260.929688 113.996094 260.929688 91.332031 C 260.929688 66.316406 242.601563 54.230469 222.039063 54.230469 C 196.257813 54.230469 179.566406 73.871094 181.207031 102.914063 L 204.902344 102.914063 C 204.902344 90.15625 208.773438 79.242188 222.1875 79.242188 C 230.382813 79.242188 235.597656 84.617188 235.597656 93.851563 C 235.597656 101.738281 229.933594 107.449219 222.039063 113.324219 C 213.84375 119.199219 203.859375 125.074219 194.914063 133.804688 C 184.632813 143.875 178.824219 157.808594 178.675781 172.75 L 261.972656 172.75 Z M 170.183594 141.527344 L 142.46875 141.527344 L 142.46875 172.75 L 170.183594 172.75 Z M 129.511719 52.886719 L 101.796875 52.886719 L 101.796875 96.535156 L 65.285156 96.535156 L 65.285156 52.886719 L 37.570313 52.886719 L 37.570313 172.75 L 65.285156 172.75 L 65.285156 123.394531 L 101.796875 123.394531 L 101.796875 172.75 L 129.511719 172.75 Z M 438.75 354.609375 L 37.5 354.609375 C 16.789063 354.609375 0 337.808594 0 317.085938 L 0 37.523438 C 0 16.800781 16.789063 -0.00390625 37.5 -0.00390625 L 438.75 -0.00390625 C 459.460938 -0.00390625 476.25 16.800781 476.25 37.523438 L 476.25 317.085938 C 476.25 337.808594 459.460938 354.609375 438.75 354.609375 "/>
</g>
<g clip-path="url(#clip2)" clip-rule="nonzero">
<use xlink:href="#surface4" transform="matrix(1,0,0,1,243,0.000000000000042411)" mask="url(#mask0)"/>
</g>
</g>
</svg>
