<?xml version="1.0" encoding="UTF-8"?>
<svg xmlns="http://www.w3.org/2000/svg" xmlns:xlink="http://www.w3.org/1999/xlink" viewBox="0 0 476.25 354.61" version="1.1">
<defs>
<clipPath id="clip1">
  <path d="M 0 0 L 476.25 0 L 476.25 354.609375 L 0 354.609375 Z M 0 0 "/>
</clipPath>
<clipPath id="clip2">
  <path d="M 243.699219 0.0117188 L 476.25 0.0117188 L 476.25 326.511719 L 243.699219 326.511719 Z M 243.699219 0.0117188 "/>
</clipPath>
<filter id="alpha" filterUnits="objectBoundingBox" x="0%" y="0%" width="100%" height="100%">
  <feColorMatrix type="matrix" in="SourceGraphic" values="0 0 0 0 1 0 0 0 0 1 0 0 0 0 1 0 0 0 1 0"/>
</filter>
<mask id="mask0">
  <g filter="url(#alpha)">
<rect x="0" y="0" width="476.25" height="354.61" style="fill:rgb(0%,0%,0%);fill-opacity:0.25;stroke:none;"/>
  </g>
</mask>
<clipPath id="clip4">
  <path d="M 0.78125 0.0117188 L 233.25 0.0117188 L 233.25 326.472656 L 0.78125 326.472656 Z M 0.78125 0.0117188 "/>
</clipPath>
<clipPath id="clip3">
  <rect width="234" height="327"/>
</clipPath>
<g id="surface4" clip-path="url(#clip3)">
<g clip-path="url(#clip4)" clip-rule="nonzero">
<path style=" stroke:none;fill-rule:evenodd;fill:rgb(100%,100%,100%);fill-opacity:1;" d="M 195.75 -0.00390625 C 216.460938 -0.00390625 233.25 16.800781 233.25 37.523438 L 233.25 317.085938 C 233.25 320.328125 232.839844 323.472656 232.066406 326.472656 L 0.78125 -0.00390625 "/>
</g>
</g>
</defs>
<g id="surface1">
<g clip-path="url(#clip2)" clip-rule="nonzero">
<use xlink:href="#surface4" transform="matrix(1,0,0,1,243,0.000000000000042411)" mask="url(#mask0)"/>
</g>
</g>
</svg>
